<?xml version="1.0" encoding="UTF-8"?>
<svg id="Layer_8" data-name="Layer 8" xmlns="http://www.w3.org/2000/svg" viewBox="0 0 1280 1280">
  <defs>
    <style>
      .cls-1 {
        fill: #2e3192;
      }

      .cls-1, .cls-2, .cls-3, .cls-4 {
        stroke-width: 0px;
      }

      .cls-2 {
        fill: #ff914d;
      }

      .cls-3 {
        fill: #8c52ff;
      }

      .cls-4 {
        fill: #ffbd59;
      }
    </style>
  </defs>
  <g>
    <polygon class="cls-4" points="461.36 803.91 513.83 702.54 445.12 702.54 411.73 794.73 411.73 803.91 461.36 803.91"/>
    <polygon class="cls-4" points="276.25 803.91 276.25 794.73 242.86 702.54 174.15 702.54 226.62 803.91 276.25 803.91"/>
  </g>
  <g>
    <polygon class="cls-3" points="411.22 622.63 444.61 696.72 513.32 696.72 411.22 489.87 343.48 630.34 377.84 696.72 411.22 622.63"/>
    <polygon class="cls-4" points="275.74 622.63 242.36 696.72 173.64 696.72 275.74 489.87 343.48 630.34 309.13 696.72 275.74 622.63"/>
    <polygon class="cls-3" points="343.48 641.38 311.99 702.23 311.99 702.23 311.99 702.23 314.85 707.76 343.48 759.88 372.11 707.76 374.98 702.23 374.98 702.23 374.98 702.23 343.48 641.38"/>
  </g>
  <path class="cls-2" d="M291.3,795.9c-10.24-3.44-20.3-7.92-30.02-13.53-78.62-45.39-105.56-145.93-60.17-224.56,45.39-78.62,145.93-105.56,224.56-60.17,2.76,1.59,5.46,3.26,8.09,4.99,8.43,5.53,19.37,5.43,27.81-.08l60.54-39.55c.87-.57,1-1.8.27-2.53-2.93-2.92-5.94-5.79-9.04-8.58-3.32-2.99-4.77-7.53-3.73-11.87,4.03-16.8,9.86-38.96,15.43-52.23,1.62-3.85.14-8.29-3.48-10.38l-39.75-22.95c-3.62-2.09-8.2-1.15-10.73,2.18-8.71,11.47-24.99,27.61-37.53,39.5-3.23,3.07-7.88,4.09-12.12,2.72-8.25-2.68-16.58-4.9-24.95-6.69-4.36-.93-7.86-4.14-9.13-8.41-4.91-16.56-10.94-38.66-12.75-52.94-.52-4.14-4.03-7.25-8.2-7.25h-45.9c-4.17,0-7.68,3.11-8.2,7.25-1.81,14.31-7.85,36.45-12.77,53.02-1.27,4.27-4.77,7.48-9.13,8.42-8.41,1.8-16.72,4.03-24.9,6.68-4.24,1.37-8.88.34-12.11-2.72-12.54-11.89-28.84-28.04-37.56-39.52-2.52-3.32-7.11-4.26-10.73-2.18l-39.75,22.95c-3.62,2.09-5.1,6.53-3.48,10.38,5.58,13.28,11.41,35.43,15.43,52.24,1.04,4.33-.39,8.86-3.7,11.85-6.35,5.74-12.45,11.83-18.26,18.28-2.98,3.31-7.52,4.75-11.85,3.71-16.8-4.03-38.96-9.86-52.23-15.43-3.85-1.62-8.29-.14-10.38,3.48-5.88,10.19-17.07,29.57-22.96,39.76-2.09,3.62-1.15,8.2,2.18,10.73,11.47,8.71,27.61,24.99,39.5,37.53,3.07,3.23,4.09,7.88,2.72,12.12-2.68,8.25-4.9,16.58-6.69,24.95-.93,4.36-4.14,7.86-8.41,9.13-16.56,4.91-38.66,10.94-52.94,12.75-4.14.52-7.25,4.02-7.25,8.2,0,11.76,0,34.15,0,45.91,0,4.17,3.11,7.68,7.25,8.2,14.31,1.81,36.45,7.85,53.02,12.77,4.27,1.27,7.48,4.77,8.42,9.13,1.8,8.41,4.03,16.72,6.68,24.9,1.37,4.24.34,8.88-2.72,12.11-11.89,12.54-28.04,28.84-39.52,37.56-3.32,2.52-4.26,7.11-2.18,10.73l22.95,39.75c2.09,3.62,6.53,5.1,10.38,3.48,13.28-5.58,35.43-11.41,52.24-15.43,4.33-1.04,8.86.39,11.85,3.7,5.74,6.35,11.83,12.45,18.28,18.26,3.31,2.98,4.75,7.52,3.71,11.85-4.03,16.8-9.86,38.96-15.43,52.23-1.62,3.85-.14,8.29,3.48,10.38l39.75,22.95c3.62,2.09,8.2,1.15,10.73-2.18,8.71-11.47,24.99-27.61,37.53-39.5,3.23-3.06,7.87-4.09,12.11-2.72,8.25,2.68,16.58,4.9,24.95,6.69.28.06.55.16.83.24v-92.21Z"/>
  <path class="cls-1" d="M509.66,839.97c-1.04-4.33.39-8.87,3.7-11.86h0c1.63-1.47,3.24-2.96,4.83-4.48,0,0,0,0,.01-.01.76-.72.64-1.96-.23-2.54l-60.84-40.54c-8.32-5.54-19.08-5.68-27.61-.46-49.74,30.5-114.17,33.51-168.25,2.29-9.31-5.37-17.88-11.53-25.7-18.32-56.25-2.41-108.9-7.08-156.01-13.57-6.9,6.67-13.75,12.86-19.44,17.19-2.38,1.81-3.53,4.67-3.23,7.48.03.27.07.54.13.8,0,.02,0,.03.01.05.05.24.12.48.19.72.01.04.02.08.04.12.07.22.15.43.24.64.02.05.04.11.06.16.11.25.24.51.38.75l22.95,39.75c.52.9,1.19,1.67,1.96,2.3,2.31,1.87,5.53,2.4,8.42,1.18,3.04-1.28,6.56-2.56,10.35-3.84,1.39-.47,2.8-.93,4.26-1.4,1.93-.61,3.92-1.22,5.93-1.82.52-.15,1.04-.31,1.56-.46,2.04-.6,4.11-1.19,6.19-1.77,1.17-.33,2.35-.65,3.52-.97,1.42-.38,2.84-.76,4.25-1.13,1.86-.49,3.71-.97,5.53-1.43.46-.12.92-.23,1.38-.35,3.19-.8,6.3-1.57,9.24-2.27,3.25-.78,6.61-.17,9.35,1.58.91.58,1.76,1.29,2.5,2.12,1.43,1.59,2.89,3.16,4.37,4.72,2.23,2.34,4.52,4.64,6.85,6.9,2.31,2.25,4.65,4.47,7.05,6.63.41.37.8.77,1.15,1.19.71.84,1.3,1.76,1.75,2.73s.78,2.01.96,3.07c.27,1.59.23,3.25-.16,4.87-.25,1.05-.51,2.12-.78,3.21-.53,2.18-1.09,4.42-1.67,6.71s-1.18,4.62-1.8,6.96c-3.4,12.89-7.36,26.21-11.19,35.34-.4.96-.61,1.96-.65,2.95,0,0,0,0,0,0-.02.49.01.98.08,1.46.11.73.31,1.44.6,2.11.1.22.21.44.32.66.7,1.29,1.76,2.4,3.12,3.19l39.75,22.95c.45.26.92.47,1.4.64.48.17.96.29,1.45.37s.98.11,1.47.1c2.45-.06,4.83-1.2,6.41-3.28,2.72-3.58,6.18-7.62,10.04-11.85,2.31-2.53,4.77-5.13,7.29-7.74,1.68-1.74,3.39-3.48,5.11-5.21,5.16-5.18,10.38-10.24,15.09-14.69.81-.77,1.71-1.41,2.66-1.91.96-.51,1.97-.88,3.02-1.11s2.13-.33,3.21-.28c1.08.05,2.17.24,3.23.59.64.21,1.28.39,1.92.6,7.62,2.4,15.3,4.44,23.02,6.09,1.09.23,2.13.61,3.09,1.11.48.25.94.53,1.38.84,2.2,1.54,3.87,3.8,4.66,6.47.31,1.04.62,2.09.93,3.17,2.76,9.42,5.74,20.25,8.09,30.29.11.48.22.96.33,1.44.73,3.2,1.4,6.32,1.96,9.27.4,2.09.75,4.1,1.04,6,.14.95.27,1.87.39,2.77.16,1.29.62,2.49,1.29,3.52,1.49,2.26,4.04,3.73,6.91,3.73h45.9c3.65,0,6.79-2.38,7.87-5.75.08-.24.14-.49.2-.74.06-.25.1-.51.13-.76.68-5.37,1.95-11.83,3.54-18.69,2.64-11.44,6.16-23.97,9.23-34.33.32-1.07.77-2.07,1.35-2.99.86-1.37,1.99-2.56,3.31-3.48.44-.31.9-.59,1.38-.84.96-.5,2-.88,3.09-1.11,2.1-.45,4.2-.93,6.29-1.43,2.09-.5,4.17-1.03,6.25-1.59,4.14-1.11,8.26-2.33,12.34-3.65s8.89-.36,12.13,2.71c2.35,2.23,4.84,4.61,7.38,7.08,1.69,1.65,3.41,3.33,5.14,5.04,5.58,5.54,11.18,11.31,16.07,16.73,3.42,3.79,6.51,7.42,8.97,10.67,1.58,2.08,3.96,3.22,6.41,3.28.49.01.98-.02,1.47-.1.24-.04.49-.09.73-.15.73-.18,1.44-.47,2.12-.86l39.75-22.95c1.81-1.04,3.08-2.68,3.7-4.53.23-.69.37-1.42.42-2.16.07-1.23-.13-2.49-.64-3.69-5.58-13.28-11.41-35.43-15.43-52.23Z"/>
  <g>
    <path class="cls-4" d="M638.95,622.65v38.08h-33.2c-4.51,0-7.7.67-9.58,2-1.88,1.34-2.82,3.59-2.82,6.76,0,3.59.96,5.95,2.88,7.08,1.92,1.13,5.84,1.69,11.78,1.69h34.2v48.85h-39.96c-18.79,0-33.15-4.49-43.09-13.47-9.94-8.98-14.91-21.94-14.91-38.9v-67.02c0-16.37,4.7-29.06,14.09-38.08,9.39-9.02,22.61-13.53,39.65-13.53h44.22v49.1h-32.44c-8.77,0-13.15,2.84-13.15,8.52,0,3.34,1.04,5.66,3.13,6.95,2.09,1.3,5.8,1.94,11.15,1.94h28.06Z"/>
    <path class="cls-3" d="M722.25,605.24v121.88h-50.86v-170.99h66.26c29.06,0,51.82,6.6,68.27,19.79,19.54,15.78,29.31,37.2,29.31,64.26s-8.35,47.02-25.05,63.38c-16.7,16.37-38.21,24.55-64.51,24.55-3.09,0-8.14-.17-15.16-.5v-50.23h8.14c29.65,0,44.47-12.4,44.47-37.2,0-23.3-14.57-34.95-43.72-34.95h-17.16Z"/>
    <path class="cls-4" d="M910.02,556.13v170.99h-50.86v-170.99h50.86Z"/>
    <path class="cls-3" d="M995.08,605.24v121.88h-50.86v-170.99h66.26c29.06,0,51.82,6.6,68.27,19.79,19.54,15.78,29.31,37.2,29.31,64.26s-8.35,47.02-25.05,63.38c-16.7,16.37-38.21,24.55-64.51,24.55-3.09,0-8.14-.17-15.16-.5v-50.23h8.14c29.65,0,44.47-12.4,44.47-37.2,0-23.3-14.57-34.95-43.72-34.95h-17.16Z"/>
    <path class="cls-4" d="M1194,641.32v45.1h-14.66v40.71h-50.86v-108.73c0-21.04,5.74-37.39,17.22-49.04,11.48-11.65,27.62-17.47,48.42-17.47s34.87,5.28,44.47,15.85c9.6,10.57,14.41,26.87,14.41,48.92v110.48h-50.86v-107.1c0-6.68-.79-11.31-2.38-13.9-1.59-2.59-4.43-3.88-8.52-3.88-7.93,0-11.9,5.93-11.9,17.79v21.29h14.66Z"/>
  </g>
</svg>