<?xml version="1.0" encoding="UTF-8"?>
<svg id="Layer_4" data-name="Layer 4" xmlns="http://www.w3.org/2000/svg" viewBox="0 0 1280 1280">
  <defs>
    <style>
      .cls-1 {
        fill: #2e3192;
      }

      .cls-1, .cls-2, .cls-3, .cls-4, .cls-5 {
        stroke-width: 0px;
      }

      .cls-2 {
        fill: none;
      }

      .cls-3 {
        fill: #ff914d;
      }

      .cls-4 {
        fill: #8c52ff;
      }

      .cls-5 {
        fill: #ffbd59;
      }
    </style>
  </defs>
  <path class="cls-2" d="M1031.41,668.34v-56.77c0-5.16-3.84-9.5-8.97-10.15-17.7-2.24-45.08-9.71-65.58-15.79-5.28-1.57-9.25-5.9-10.41-11.29-2.23-10.4-4.99-20.67-8.26-30.79-1.69-5.24-.42-10.99,3.37-14.99,14.71-15.51,34.68-35.67,48.88-46.45,4.11-3.12,5.27-8.8,2.69-13.27l-28.39-49.17c-2.58-4.47-8.08-6.3-12.84-4.3-16.42,6.9-43.82,14.11-64.6,19.09-5.36,1.28-10.97-.49-14.66-4.58-7.1-7.86-14.63-15.39-22.6-22.57-4.1-3.69-5.87-9.31-4.59-14.67,4.98-20.78,12.19-48.17,19.09-64.59,2-4.76.17-10.26-4.3-12.84l-49.17-28.39c-4.47-2.58-10.15-1.42-13.27,2.69-10.78,14.19-30.9,34.14-46.41,48.84-4,3.79-9.75,5.07-15,3.36-10.2-3.31-20.5-6.06-30.85-8.27-5.39-1.15-9.73-5.13-11.3-10.41-6.08-20.48-13.53-47.8-15.76-65.47-.65-5.12-4.98-8.97-10.15-8.97h-56.77c-5.16,0-9.5,3.84-10.15,8.97-2.24,17.7-9.71,45.08-15.79,65.58-1.57,5.28-5.9,9.25-11.29,10.41-10.4,2.23-20.67,4.99-30.79,8.26-5.24,1.69-10.99.42-14.99-3.37-15.51-14.71-35.67-34.68-46.45-48.88-3.12-4.11-8.8-5.27-13.27-2.69l-49.17,28.39c-4.47,2.58-6.3,8.08-4.3,12.84,6.9,16.42,14.11,43.82,19.09,64.6,1.28,5.36-.49,10.97-4.58,14.66-7.86,7.1-15.39,14.63-22.57,22.6-3.69,4.1-9.31,5.87-14.67,4.59-20.78-4.98-48.17-12.19-64.59-19.09-4.76-2-10.26-.17-12.84,4.3l-28.39,49.17c-2.58,4.47-1.42,10.15,2.69,13.27,14.19,10.78,34.14,30.9,48.84,46.41,3.79,4,5.07,9.75,3.36,15-3.31,10.2-6.06,20.5-8.27,30.85-1.15,5.39-5.13,9.73-10.41,11.3-20.48,6.08-47.8,13.53-65.47,15.76-5.12.65-8.97,4.98-8.97,10.15v56.77c0,5.16,3.84,9.5,8.97,10.15,17.7,2.24,45.08,9.71,65.58,15.79,5.28,1.57,9.25,5.9,10.41,11.29,2.23,10.4,4.99,20.67,8.26,30.79,1.69,5.24.42,10.99-3.37,14.99-14.71,15.51-34.68,35.67-48.88,46.45-4.11,3.12-5.27,8.8-2.69,13.27l28.39,49.17c2.58,4.47,8.08,6.3,12.84,4.3,16.42-6.9,43.82-14.11,64.6-19.09,5.36-1.28,10.97.49,14.66,4.58,7.1,7.86,14.63,15.39,22.6,22.57,4.1,3.69,5.87,9.31,4.59,14.67-4.98,20.78-12.19,48.17-19.09,64.59-2,4.76-.17,10.26,4.3,12.84l49.17,28.39c4.47,2.58,10.15,1.42,13.27-2.69,10.78-14.19,30.9-34.14,46.41-48.84,4-3.79,9.75-5.07,15-3.36,10.2,3.31,20.5,6.06,30.85,8.27,5.39,1.15,9.73,5.13,11.3,10.41,6.08,20.48,13.53,47.8,15.76,65.47.65,5.12,4.98,8.97,10.15,8.97h56.77c5.16,0,9.5-3.84,10.15-8.97,2.24-17.7,9.71-45.08,15.79-65.58,1.57-5.28,5.9-9.25,11.29-10.41,10.4-2.23,20.67-4.99,30.79-8.26,5.24-1.69,10.99-.42,14.99,3.37,15.51,14.71,35.67,34.68,46.45,48.88,3.12,4.11,8.8,5.27,13.27,2.69l49.17-28.39c4.47-2.58,6.3-8.08,4.3-12.84-6.9-16.42-14.11-43.82-19.09-64.6-1.28-5.36.49-10.97,4.58-14.66,7.86-7.1,15.39-14.63,22.57-22.6,3.69-4.1,9.31-5.87,14.67-4.59,20.78,4.98,48.17,12.19,64.59,19.09,4.76,2,10.26.17,12.84-4.3l28.39-49.17c2.58-4.47,1.42-10.15-2.69-13.27-14.19-10.78-34.14-30.9-48.84-46.41-3.79-4-5.07-9.75-3.36-15,3.31-10.2,6.06-20.5,8.27-30.85,1.15-5.39,5.13-9.73,10.41-11.3,20.48-6.08,47.8-13.53,65.47-15.76,5.12-.65,8.97-4.98,8.97-10.15ZM538.34,816.07c-97.24-56.14-130.56-180.49-74.42-277.73,56.14-97.24,180.49-130.56,277.73-74.42,97.24,56.14,130.56,180.49,74.42,277.73-56.14,97.24-180.49,130.56-277.73,74.42Z"/>
  <g>
    <polygon class="cls-5" points="785.81 842.72 850.7 717.35 765.72 717.35 724.43 797.13 724.43 842.72 785.81 842.72"/>
    <polygon class="cls-5" points="556.86 842.72 556.86 797.13 515.57 717.35 430.59 717.35 495.48 842.72 556.86 842.72"/>
  </g>
  <g>
    <polygon class="cls-4" points="723.8 618.52 765.09 710.15 850.07 710.15 723.8 454.32 640.01 628.05 682.51 710.15 723.8 618.52"/>
    <polygon class="cls-5" points="556.23 618.52 514.94 710.15 429.96 710.15 556.23 454.32 640.01 628.05 597.52 710.15 556.23 618.52"/>
    <polygon class="cls-4" points="640.01 641.7 601.06 716.96 601.06 716.96 601.06 716.96 604.6 723.8 640.01 788.27 675.43 723.8 678.97 716.96 678.97 716.96 678.97 716.96 640.01 641.7"/>
  </g>
  <path class="cls-1" d="M1253,682.47c0-42.74-87.62-80.9-224.92-106.02,101.67,23.27,164.34,55.1,164.34,90.21,0,71.27-258.24,129.05-576.79,129.05S38.85,737.94,38.85,666.67c0-5.17,1.37-10.27,4.01-15.28-10.38,9.99-15.86,20.39-15.86,31.09,0,20.57,20.31,40.08,56.68,57.59h0s80.43,39.73,201.88,67.08c.15,1.38.57,2.75,1.3,4.02l28.39,49.17c2.58,4.47,8.08,6.3,12.84,4.3,16.42-6.9,43.82-14.11,64.6-19.09,5.36-1.28,10.97.49,14.66,4.58,7.1,7.86,14.63,15.39,22.6,22.57,4.1,3.69,5.87,9.31,4.59,14.67-4.98,20.78-12.19,48.17-19.09,64.59-2,4.76-.17,10.26,4.3,12.84l49.17,28.39c4.47,2.58,10.15,1.42,13.27-2.69,10.78-14.19,30.9-34.14,46.41-48.84,4-3.79,9.75-5.07,15-3.36,10.2,3.31,20.5,6.06,30.85,8.27,5.39,1.15,9.73,5.13,11.3,10.41,6.08,20.48,13.53,47.8,15.76,65.47.65,5.12,4.98,8.97,10.15,8.97h56.77c5.16,0,9.5-3.84,10.15-8.97,2.24-17.7,9.71-45.08,15.8-65.58,1.57-5.28,5.9-9.25,11.29-10.41,10.4-2.23,20.67-4.99,30.79-8.26,5.24-1.69,10.99-.42,14.99,3.37,15.51,14.71,35.67,34.68,46.45,48.88,3.12,4.11,8.8,5.27,13.27,2.69l49.17-28.39c4.47-2.58,6.3-8.08,4.3-12.84-6.9-16.42-14.11-43.82-19.09-64.6-1.28-5.36.49-10.97,4.58-14.66,7.86-7.1,15.39-14.63,22.57-22.6,3.69-4.1,9.31-5.87,14.67-4.59,20.78,4.98,48.17,12.19,64.59,19.09,4.76,2,10.26.17,12.84-4.3l28.39-49.17c2.58-4.47,1.42-10.15-2.69-13.27-1.02-.78-2.08-1.61-3.16-2.48,160.47-24.7,265.66-66.03,265.66-112.86Z"/>
  <path class="cls-3" d="M990.47,482.41c4.11-3.12,5.28-8.79,2.69-13.27-7.28-12.61-21.13-36.6-28.4-49.19-2.58-4.46-8.06-6.28-12.81-4.29-16.43,6.9-43.85,14.12-64.64,19.1-5.35,1.28-10.94-.48-14.62-4.56-7.11-7.87-14.65-15.42-22.63-22.61-4.09-3.68-5.86-9.28-4.58-14.63,4.98-20.78,12.19-48.19,19.09-64.62,2-4.76.17-10.25-4.3-12.84l-49.18-28.4c-4.46-2.58-10.13-1.42-13.25,2.69-10.78,14.19-30.93,34.16-46.44,48.87-3.99,3.78-9.72,5.05-14.95,3.35-10.22-3.31-20.53-6.07-30.9-8.29-5.38-1.15-9.71-5.11-11.27-10.38-6.08-20.49-13.53-47.82-15.77-65.49-.65-5.12-4.98-8.97-10.14-8.97-14.56,0-42.26,0-56.8,0-5.15,0-9.47,3.84-10.12,8.95-2.24,17.7-9.72,45.11-15.8,65.62-1.56,5.27-5.88,9.22-11.25,10.38-10.41,2.23-20.71,4.99-30.84,8.27-5.23,1.69-10.95.42-14.94-3.36-15.52-14.71-35.68-34.69-46.47-48.9-3.12-4.11-8.8-5.27-13.27-2.69l-49.17,28.39c-4.47,2.58-6.3,8.08-4.3,12.84,6.9,16.43,14.11,43.84,19.09,64.63,1.28,5.35-.48,10.94-4.56,14.62-7.87,7.11-15.42,14.65-22.61,22.64-3.68,4.09-9.28,5.86-14.63,4.57-20.78-4.98-48.19-12.19-64.62-19.09-4.76-2-10.26-.17-12.84,4.3l-28.39,49.17c-2.58,4.47-1.42,10.15,2.69,13.27,14.19,10.78,34.15,30.92,48.86,46.43,3.78,3.99,5.05,9.72,3.35,14.95-3.31,10.21-6.07,20.52-8.28,30.88-1.15,5.39-5.12,9.73-10.4,11.29-7.99,2.37-17.03,4.95-26.13,7.35-4.47,1.18-5.68,6.96-2.05,9.82,44.23,34.85,93.12,63.17,145.48,83.66.82.32,1.66-.41,1.47-1.27-10.95-47.86-4.7-99.77,21.43-145.75,55.44-97.53,178.03-131.79,275.94-77.03,80.89,45.24,118.65,137.18,99.07,222.76-.2.86.64,1.6,1.47,1.27,52.37-20.5,101.27-48.84,145.51-83.71,3.63-2.86,2.42-8.64-2.05-9.81-9.17-2.41-18.27-5.01-26.32-7.4-5.27-1.57-9.24-5.9-10.4-11.28-2.23-10.41-4.99-20.69-8.26-30.82-1.69-5.23-.42-10.96,3.36-14.94,14.71-15.52,34.69-35.68,48.9-46.47Z"/>
</svg>