<svg xmlns="http://www.w3.org/2000/svg" id="Capa_1" data-name="Capa 1" viewBox="0 0 1688 1080">
  <defs>
    <style>
      .cls-1{fill:#8c52ff}.cls-5{fill:#ffbd59}
    </style>
  </defs>
  <path fill="none"
    d="M1378.44 578.69v-77.51c0-7.05-5.24-12.97-12.25-13.86-24.17-3.06-61.55-13.26-89.54-21.56-7.21-2.14-12.63-8.06-14.21-15.42-3.04-14.2-6.81-28.22-11.28-42.04-2.31-7.15-.57-15.01 4.6-20.47 20.09-21.18 47.35-48.7 66.74-63.42 5.61-4.26 7.2-12.02 3.67-18.12l-38.76-67.14c-3.52-6.1-11.03-8.6-17.53-5.87-22.42 9.42-59.83 19.27-88.21 26.07-7.32 1.75-14.98-.67-20.02-6.25-9.69-10.73-19.98-21.01-30.86-30.82-5.6-5.04-8.01-12.71-6.27-20.03 6.8-28.37 16.64-65.77 26.07-88.19 2.73-6.5.23-14.01-5.87-17.53l-67.14-38.76c-6.1-3.52-13.86-1.94-18.12 3.67-14.72 19.38-42.19 46.62-63.37 66.69-5.46 5.17-13.31 6.92-20.48 4.59-13.93-4.52-27.99-8.27-42.12-11.29-7.36-1.57-13.29-7-15.43-14.21-8.3-27.96-18.47-65.27-21.52-89.39-.89-6.99-6.8-12.25-13.86-12.25h-77.51c-7.05 0-12.97 5.24-13.86 12.25-3.06 24.17-13.26 61.55-21.56 89.54-2.14 7.21-8.06 12.63-15.42 14.21-14.2 3.04-28.22 6.81-42.04 11.28-7.15 2.31-15.01.57-20.47-4.6-21.18-20.09-48.7-47.35-63.42-66.74-4.26-5.61-12.02-7.2-18.12-3.67l-67.14 38.76c-6.1 3.52-8.6 11.03-5.87 17.53 9.42 22.42 19.27 59.83 26.07 88.21 1.75 7.32-.67 14.98-6.25 20.02-10.73 9.69-21.01 19.98-30.82 30.86-5.04 5.6-12.71 8.01-20.03 6.27-28.37-6.8-65.77-16.64-88.19-26.07-6.5-2.73-14.01-.23-17.53 5.87l-38.76 67.14c-3.52 6.1-1.94 13.86 3.67 18.12 19.38 14.72 46.62 42.19 66.69 63.37 5.17 5.46 6.92 13.31 4.59 20.48-4.52 13.93-8.27 27.99-11.29 42.12-1.57 7.36-7 13.29-14.21 15.43-27.96 8.3-65.27 18.47-89.39 21.52-6.99.89-12.25 6.8-12.25 13.86v77.51c0 7.05 5.24 12.97 12.25 13.86 24.17 3.06 61.55 13.26 89.54 21.56 7.21 2.14 12.63 8.06 14.21 15.42 3.04 14.2 6.81 28.22 11.28 42.04 2.31 7.15.57 15.01-4.6 20.47-20.09 21.18-47.35 48.7-66.74 63.42-5.61 4.26-7.2 12.02-3.67 18.12l38.76 67.14c3.52 6.1 11.03 8.6 17.53 5.87 22.42-9.42 59.83-19.27 88.21-26.07 7.32-1.75 14.98.67 20.02 6.25 9.69 10.73 19.98 21.01 30.86 30.82 5.6 5.04 8.01 12.71 6.27 20.03-6.8 28.37-16.64 65.77-26.07 88.19-2.73 6.5-.23 14.01 5.87 17.53l67.14 38.76c6.1 3.52 13.86 1.94 18.12-3.67 14.72-19.38 42.19-46.62 63.37-66.69 5.46-5.17 13.31-6.92 20.48-4.59 13.93 4.52 27.99 8.27 42.12 11.29 7.36 1.57 13.29 7 15.43 14.21 8.3 27.96 18.47 65.27 21.52 89.39.89 6.99 6.8 12.25 13.86 12.25h77.51c7.05 0 12.97-5.24 13.86-12.25 3.06-24.17 13.26-61.55 21.56-89.54 2.14-7.21 8.06-12.63 15.42-14.21 14.2-3.04 28.22-6.81 42.04-11.28 7.15-2.31 15.01-.57 20.47 4.6 21.18 20.09 48.7 47.35 63.42 66.74 4.26 5.61 12.02 7.2 18.12 3.67l67.14-38.76c6.1-3.52 8.6-11.03 5.87-17.53-9.42-22.42-19.27-59.83-26.07-88.21-1.75-7.32.67-14.98 6.25-20.02 10.73-9.69 21.01-19.98 30.82-30.86 5.04-5.6 12.71-8.01 20.03-6.27 28.37 6.8 65.77 16.64 88.19 26.07 6.5 2.73 14.01.23 17.53-5.87l38.76-67.14c3.52-6.1 1.94-13.86-3.67-18.12-19.38-14.72-46.62-42.19-66.69-63.37-5.17-5.46-6.92-13.31-4.59-20.48 4.52-13.93 8.27-27.99 11.29-42.12 1.57-7.36 7-13.29 14.21-15.43 27.96-8.3 65.27-18.47 89.39-21.52 6.99-.89 12.25-6.8 12.25-13.86ZM705.19 780.4c-132.77-76.65-178.27-246.44-101.61-379.22 76.65-132.77 246.44-178.27 379.22-101.61 132.77 76.65 178.27 246.44 101.61 379.22-76.65 132.77-246.44 178.27-379.22 101.61Z" />
  <path
    d="m1043.09 816.79 88.6-171.18h-116.03l-56.38 108.93v62.25h83.81zm-312.61 0v-62.25L674.1 645.61H558.07l88.6 171.18h83.81z"
    class="cls-5" />
  <path d="m958.42 510.66 56.38 125.12h116.03L958.42 286.46 844.01 523.68l58.03 112.1 56.38-125.12z"
    class="cls-1" />
  <path d="m729.62 510.66-56.38 125.12H557.21l172.41-349.32 114.39 237.22L786 635.78l-56.38-125.12z"
    class="cls-5" />
  <path d="m844.01 542.31-53.18 102.77 4.83 9.34 48.35 88.02 48.37-88.02 4.83-9.34-53.2-102.77z"
    class="cls-1" />
  <path fill="#2e3192"
    d="M1681 597.98c0-58.36-119.64-110.46-307.11-144.76 138.82 31.77 224.39 75.23 224.39 123.17 0 97.31-352.61 176.21-787.56 176.21S23.18 673.72 23.18 576.41c0-7.06 1.87-14.02 5.48-20.86C14.49 569.19 7 583.39 7 598c0 28.09 27.73 54.73 77.39 78.63s109.82 54.25 275.65 91.59c.2 1.88.78 3.75 1.78 5.49l38.76 67.14c3.52 6.1 11.03 8.6 17.53 5.87 22.42-9.42 59.83-19.27 88.21-26.07 7.32-1.75 14.98.67 20.02 6.25 9.69 10.73 19.98 21.01 30.86 30.82 5.6 5.04 8.01 12.71 6.27 20.03-6.8 28.37-16.64 65.77-26.07 88.19-2.73 6.5-.23 14.01 5.87 17.53l67.14 38.76c6.1 3.52 13.86 1.94 18.12-3.67 14.72-19.38 42.19-46.62 63.37-66.69 5.46-5.17 13.31-6.92 20.48-4.59 13.93 4.52 27.99 8.27 42.12 11.29 7.36 1.57 13.29 7 15.43 14.21 8.3 27.96 18.47 65.27 21.52 89.39.89 6.99 6.8 12.25 13.86 12.25h77.51c7.05 0 12.97-5.24 13.86-12.25 3.06-24.17 13.26-61.55 21.57-89.54 2.14-7.21 8.06-12.63 15.42-14.21 14.2-3.04 28.22-6.81 42.04-11.28 7.15-2.31 15.01-.57 20.47 4.6 21.18 20.09 48.7 47.35 63.42 66.74 4.26 5.61 12.02 7.2 18.12 3.67l67.14-38.76c6.1-3.52 8.6-11.03 5.87-17.53-9.42-22.42-19.27-59.83-26.07-88.21-1.75-7.32.67-14.98 6.25-20.02 10.73-9.69 21.01-19.98 30.82-30.86 5.04-5.6 12.71-8.01 20.03-6.27 28.37 6.8 65.77 16.64 88.19 26.07 6.5 2.73 14.01.23 17.53-5.87l38.76-67.14c3.52-6.1 1.94-13.86-3.67-18.12-1.39-1.07-2.84-2.2-4.31-3.39 219.11-33.73 362.74-90.16 362.74-154.1Z" />
  <path fill="#ff914d"
    d="M1322.54 324.82c5.61-4.26 7.21-12 3.67-18.12-9.94-17.22-28.85-49.97-38.78-67.16-3.52-6.09-11.01-8.57-17.49-5.86-22.43 9.42-59.87 19.28-88.26 26.08-7.3 1.75-14.94-.66-19.96-6.23-9.71-10.75-20-21.05-30.9-30.87-5.58-5.02-8-12.67-6.25-19.98 6.8-28.37 16.64-65.8 26.07-88.23 2.73-6.5.23-14-5.87-17.53l-67.15-38.78c-6.09-3.52-13.83-1.94-18.09 3.67-14.72 19.38-42.23 46.64-63.41 66.73-5.45 5.16-13.27 6.9-20.41 4.57-13.95-4.52-28.03-8.29-42.19-11.32-7.35-1.57-13.26-6.98-15.39-14.17-8.3-27.98-18.47-65.29-21.53-89.42-.89-6.99-6.8-12.25-13.85-12.25h-77.56c-7.03 0-12.93 5.24-13.82 12.22-3.06 24.17-13.27 61.59-21.57 89.6-2.13 7.2-8.03 12.59-15.36 14.17-14.21 3.04-28.28 6.81-42.11 11.29-7.14 2.31-14.95.57-20.4-4.59-21.19-20.09-48.72-47.37-63.45-66.77-4.26-5.61-12.02-7.2-18.12-3.67l-67.14 38.76c-6.1 3.52-8.6 11.03-5.87 17.53 9.42 22.43 19.27 59.86 26.07 88.25 1.75 7.3-.66 14.94-6.23 19.96-10.75 9.71-21.05 20-30.87 30.91-5.02 5.58-12.67 8-19.98 6.24-28.37-6.8-65.8-16.64-88.23-26.07-6.5-2.73-14.01-.23-17.53 5.87l-38.76 67.14c-3.52 6.1-1.94 13.86 3.67 18.12 19.38 14.72 46.63 42.22 66.71 63.4 5.16 5.45 6.9 13.27 4.57 20.41-4.52 13.94-8.29 28.02-11.31 42.16-1.57 7.36-6.99 13.29-14.2 15.42-10.91 3.24-23.25 6.76-35.68 10.04-6.1 1.61-7.76 9.5-2.8 13.41 60.39 47.58 127.15 86.25 198.64 114.23 1.12.44 2.27-.56 2.01-1.73-14.95-65.35-6.42-136.23 29.26-199.01 75.7-133.17 243.09-179.95 376.77-105.18 110.45 61.77 162.01 187.31 135.27 304.16-.27 1.17.87 2.18 2.01 1.73 71.51-27.99 138.28-66.69 198.68-114.3 4.96-3.91 3.3-11.8-2.8-13.39-12.52-3.29-24.95-6.84-35.94-10.1-7.2-2.14-12.62-8.06-14.2-15.4-3.04-14.21-6.81-28.25-11.28-42.08-2.31-7.14-.57-14.96 4.59-20.4 20.09-21.19 47.37-48.72 66.77-63.45h-.03Z" />
</svg>